<svg width="184" height="184" viewBox="0 0 184 184" fill="none" xmlns="http://www.w3.org/2000/svg">
<mask id="path-1-inside-1_31_35" fill="white">
<path d="M0 2C0 0.89543 0.895431 0 2 0H182C183.105 0 184 0.895431 184 2V182C184 183.105 183.105 184 182 184H2C0.89543 184 0 183.105 0 182V2Z"/>
</mask>
<path d="M0 2C0 0.89543 0.895431 0 2 0H182C183.105 0 184 0.895431 184 2V182C184 183.105 183.105 184 182 184H2C0.89543 184 0 183.105 0 182V2Z" fill="#EDF2F7"/>
<path d="M0 0H184H0ZM184 182C184 188.627 178.627 194 172 194H12C5.37258 194 0 188.627 0 182V174C0 174 0.895431 174 2 174H182C183.105 174 184 174 184 174V182ZM0 184V0V184ZM184 0V184V0Z" fill="#640064" mask="url(#path-1-inside-1_31_35)"/>
</svg>
